<mxfile host="app.diagrams.net" agent="Mozilla/5.0 (Windows NT 10.0; Win64; x64) AppleWebKit/537.36 (KHTML, like Gecko) Chrome/135.0.0.0 Safari/537.36" version="26.2.13">
  <diagram name="Pagina-1" id="-O-YrhqU3fOLMTu7o0W1">
    <mxGraphModel dx="1751" dy="927" grid="1" gridSize="10" guides="1" tooltips="1" connect="1" arrows="1" fold="1" page="1" pageScale="1" pageWidth="1169" pageHeight="1654" math="0" shadow="0">
      <root>
        <mxCell id="0" />
        <mxCell id="1" parent="0" />
        <mxCell id="vjVt3_Kxt8tiMpe3oFBg-2" value="" style="rounded=1;whiteSpace=wrap;html=1;" parent="1" vertex="1">
          <mxGeometry x="180" y="130" width="790" height="860" as="geometry" />
        </mxCell>
        <mxCell id="zubh347rFZLeCGu5vtFi-3" style="edgeStyle=orthogonalEdgeStyle;rounded=0;orthogonalLoop=1;jettySize=auto;html=1;endArrow=none;startFill=0;" parent="1" source="vjVt3_Kxt8tiMpe3oFBg-3" target="zubh347rFZLeCGu5vtFi-1" edge="1">
          <mxGeometry relative="1" as="geometry" />
        </mxCell>
        <mxCell id="vjVt3_Kxt8tiMpe3oFBg-3" value="&lt;font style=&quot;font-size: 18px;&quot;&gt;Utente&lt;/font&gt;" style="shape=umlActor;verticalLabelPosition=bottom;verticalAlign=top;html=1;outlineConnect=0;" parent="1" vertex="1">
          <mxGeometry x="60" y="510" width="50" height="100" as="geometry" />
        </mxCell>
        <mxCell id="vjVt3_Kxt8tiMpe3oFBg-7" value="&lt;font style=&quot;font-size: 18px;&quot;&gt;Ente pubblico di gestione della città&lt;/font&gt;" style="rounded=0;whiteSpace=wrap;html=1;" parent="1" vertex="1">
          <mxGeometry x="70" y="20" width="170" height="90" as="geometry" />
        </mxCell>
        <mxCell id="zubh347rFZLeCGu5vtFi-4" style="edgeStyle=orthogonalEdgeStyle;rounded=0;orthogonalLoop=1;jettySize=auto;html=1;entryX=0.5;entryY=1;entryDx=0;entryDy=0;dashed=1;" parent="1" source="vjVt3_Kxt8tiMpe3oFBg-8" target="vjVt3_Kxt8tiMpe3oFBg-40" edge="1">
          <mxGeometry relative="1" as="geometry" />
        </mxCell>
        <mxCell id="vjVt3_Kxt8tiMpe3oFBg-8" value="&lt;div&gt;&lt;font style=&quot;font-size: 18px;&quot;&gt;UC5:&lt;/font&gt;&lt;/div&gt;&lt;font style=&quot;font-size: 18px;&quot;&gt;Inserimento Luoghi d&#39;interesse&lt;/font&gt;" style="ellipse;whiteSpace=wrap;html=1;" parent="1" vertex="1">
          <mxGeometry x="277.5" y="810" width="180" height="110" as="geometry" />
        </mxCell>
        <mxCell id="vjVt3_Kxt8tiMpe3oFBg-30" style="edgeStyle=orthogonalEdgeStyle;rounded=0;orthogonalLoop=1;jettySize=auto;html=1;entryX=0.5;entryY=0;entryDx=0;entryDy=0;dashed=1;" parent="1" source="vjVt3_Kxt8tiMpe3oFBg-9" target="vjVt3_Kxt8tiMpe3oFBg-8" edge="1">
          <mxGeometry relative="1" as="geometry" />
        </mxCell>
        <mxCell id="vjVt3_Kxt8tiMpe3oFBg-9" value="&lt;div&gt;&lt;span style=&quot;font-size: 18px;&quot;&gt;UC4:&lt;/span&gt;&lt;/div&gt;&lt;span style=&quot;font-size: 18px;&quot;&gt;Selezione città&lt;/span&gt;" style="ellipse;whiteSpace=wrap;html=1;" parent="1" vertex="1">
          <mxGeometry x="205" y="600" width="175" height="110" as="geometry" />
        </mxCell>
        <mxCell id="vjVt3_Kxt8tiMpe3oFBg-12" value="&lt;div&gt;&lt;font style=&quot;font-size: 18px;&quot;&gt;UC1:&lt;/font&gt;&lt;/div&gt;&lt;font style=&quot;font-size: 18px;&quot;&gt;Log in / Sign in&lt;/font&gt;" style="ellipse;whiteSpace=wrap;html=1;" parent="1" vertex="1">
          <mxGeometry x="315" y="390" width="165" height="100" as="geometry" />
        </mxCell>
        <mxCell id="vjVt3_Kxt8tiMpe3oFBg-14" value="&lt;font style=&quot;font-size: 20px;&quot;&gt;&lt;b&gt;SmarTripp Application&lt;/b&gt;&lt;/font&gt;" style="text;html=1;align=center;verticalAlign=middle;whiteSpace=wrap;rounded=0;" parent="1" vertex="1">
          <mxGeometry x="472" y="130" width="225" height="60" as="geometry" />
        </mxCell>
        <mxCell id="vjVt3_Kxt8tiMpe3oFBg-15" value="&lt;div&gt;&lt;font style=&quot;font-size: 18px;&quot;&gt;UC3:&lt;/font&gt;&lt;/div&gt;&lt;font style=&quot;font-size: 18px;&quot;&gt;Inserimento dati locazioni&lt;/font&gt;" style="ellipse;whiteSpace=wrap;html=1;" parent="1" vertex="1">
          <mxGeometry x="720" y="300" width="180" height="110" as="geometry" />
        </mxCell>
        <mxCell id="vjVt3_Kxt8tiMpe3oFBg-19" style="edgeStyle=orthogonalEdgeStyle;rounded=0;orthogonalLoop=1;jettySize=auto;html=1;dashed=1;" parent="1" source="vjVt3_Kxt8tiMpe3oFBg-16" target="vjVt3_Kxt8tiMpe3oFBg-15" edge="1">
          <mxGeometry relative="1" as="geometry" />
        </mxCell>
        <mxCell id="vjVt3_Kxt8tiMpe3oFBg-20" value="&lt;font style=&quot;font-size: 16px;&quot;&gt;&amp;lt;Includes&amp;gt;&lt;/font&gt;" style="edgeLabel;html=1;align=center;verticalAlign=middle;resizable=0;points=[];" parent="vjVt3_Kxt8tiMpe3oFBg-19" vertex="1" connectable="0">
          <mxGeometry x="-0.2714" y="1" relative="1" as="geometry">
            <mxPoint x="16" y="-25" as="offset" />
          </mxGeometry>
        </mxCell>
        <mxCell id="vjVt3_Kxt8tiMpe3oFBg-16" value="&lt;div&gt;&lt;font style=&quot;font-size: 18px;&quot;&gt;UC2:&lt;/font&gt;&lt;/div&gt;&lt;font style=&quot;font-size: 18px;&quot;&gt;Registrazione della città&lt;/font&gt;" style="ellipse;whiteSpace=wrap;html=1;" parent="1" vertex="1">
          <mxGeometry x="380" y="260" width="180" height="110" as="geometry" />
        </mxCell>
        <mxCell id="vjVt3_Kxt8tiMpe3oFBg-22" value="" style="endArrow=none;html=1;rounded=0;entryX=0.5;entryY=1;entryDx=0;entryDy=0;exitX=0;exitY=0;exitDx=0;exitDy=0;" parent="1" source="vjVt3_Kxt8tiMpe3oFBg-16" target="vjVt3_Kxt8tiMpe3oFBg-7" edge="1">
          <mxGeometry width="50" height="50" relative="1" as="geometry">
            <mxPoint x="410" y="280" as="sourcePoint" />
            <mxPoint x="570" y="460" as="targetPoint" />
          </mxGeometry>
        </mxCell>
        <mxCell id="vjVt3_Kxt8tiMpe3oFBg-23" value="" style="endArrow=none;html=1;rounded=0;entryX=0.5;entryY=1;entryDx=0;entryDy=0;entryPerimeter=0;exitX=1;exitY=0;exitDx=0;exitDy=0;" parent="1" source="vjVt3_Kxt8tiMpe3oFBg-16" target="vjVt3_Kxt8tiMpe3oFBg-24" edge="1">
          <mxGeometry width="50" height="50" relative="1" as="geometry">
            <mxPoint x="520" y="510" as="sourcePoint" />
            <mxPoint x="570" y="460" as="targetPoint" />
          </mxGeometry>
        </mxCell>
        <mxCell id="vjVt3_Kxt8tiMpe3oFBg-24" value="&lt;font style=&quot;font-size: 18px;&quot;&gt;Database&lt;/font&gt;" style="shape=cylinder3;whiteSpace=wrap;html=1;boundedLbl=1;backgroundOutline=1;size=15;" parent="1" vertex="1">
          <mxGeometry x="995" y="70" width="130" height="90" as="geometry" />
        </mxCell>
        <mxCell id="vjVt3_Kxt8tiMpe3oFBg-25" value="&lt;div&gt;&lt;font style=&quot;font-size: 18px;&quot;&gt;UC7:&lt;/font&gt;&lt;/div&gt;&lt;font style=&quot;font-size: 18px;&quot;&gt;Compilazione tabella di marcia&lt;/font&gt;" style="ellipse;whiteSpace=wrap;html=1;" parent="1" vertex="1">
          <mxGeometry x="670" y="760" width="220" height="110" as="geometry" />
        </mxCell>
        <mxCell id="vjVt3_Kxt8tiMpe3oFBg-26" value="" style="endArrow=none;html=1;rounded=0;entryX=0;entryY=0.5;entryDx=0;entryDy=0;" parent="1" target="vjVt3_Kxt8tiMpe3oFBg-12" edge="1">
          <mxGeometry width="50" height="50" relative="1" as="geometry">
            <mxPoint x="120" y="540" as="sourcePoint" />
            <mxPoint x="570" y="510" as="targetPoint" />
          </mxGeometry>
        </mxCell>
        <mxCell id="vjVt3_Kxt8tiMpe3oFBg-27" value="" style="endArrow=none;html=1;rounded=0;entryX=0;entryY=0.5;entryDx=0;entryDy=0;" parent="1" target="vjVt3_Kxt8tiMpe3oFBg-9" edge="1">
          <mxGeometry width="50" height="50" relative="1" as="geometry">
            <mxPoint x="120" y="560" as="sourcePoint" />
            <mxPoint x="570" y="510" as="targetPoint" />
          </mxGeometry>
        </mxCell>
        <mxCell id="vjVt3_Kxt8tiMpe3oFBg-29" value="&lt;font style=&quot;font-size: 18px;&quot;&gt;Sistema&lt;/font&gt;" style="rounded=0;whiteSpace=wrap;html=1;" parent="1" vertex="1">
          <mxGeometry x="995" y="570" width="140" height="90" as="geometry" />
        </mxCell>
        <mxCell id="vjVt3_Kxt8tiMpe3oFBg-31" value="&lt;font style=&quot;font-size: 16px;&quot;&gt;&amp;lt;Includes&amp;gt;&lt;/font&gt;" style="edgeLabel;html=1;align=center;verticalAlign=middle;resizable=0;points=[];" parent="1" vertex="1" connectable="0">
          <mxGeometry x="277.49571428571466" y="780" as="geometry" />
        </mxCell>
        <mxCell id="vjVt3_Kxt8tiMpe3oFBg-33" value="" style="endArrow=none;html=1;rounded=0;entryX=0;entryY=0.5;entryDx=0;entryDy=0;exitX=1;exitY=0.5;exitDx=0;exitDy=0;" parent="1" source="vjVt3_Kxt8tiMpe3oFBg-25" target="vjVt3_Kxt8tiMpe3oFBg-29" edge="1">
          <mxGeometry width="50" height="50" relative="1" as="geometry">
            <mxPoint x="520" y="540" as="sourcePoint" />
            <mxPoint x="570" y="490" as="targetPoint" />
          </mxGeometry>
        </mxCell>
        <mxCell id="vjVt3_Kxt8tiMpe3oFBg-40" value="&lt;div&gt;&lt;font style=&quot;font-size: 18px;&quot;&gt;UC6:&lt;/font&gt;&lt;/div&gt;&lt;font style=&quot;font-size: 18px;&quot;&gt;Inserimento requisiti di viaggio&lt;/font&gt;" style="ellipse;whiteSpace=wrap;html=1;" parent="1" vertex="1">
          <mxGeometry x="490" y="615" width="220" height="110" as="geometry" />
        </mxCell>
        <mxCell id="vjVt3_Kxt8tiMpe3oFBg-43" value="" style="endArrow=none;html=1;rounded=0;exitX=1;exitY=0.5;exitDx=0;exitDy=0;entryX=0.5;entryY=1;entryDx=0;entryDy=0;entryPerimeter=0;" parent="1" source="vjVt3_Kxt8tiMpe3oFBg-12" target="vjVt3_Kxt8tiMpe3oFBg-24" edge="1">
          <mxGeometry width="50" height="50" relative="1" as="geometry">
            <mxPoint x="590" y="530" as="sourcePoint" />
            <mxPoint x="640" y="480" as="targetPoint" />
            <Array as="points">
              <mxPoint x="1030" y="430" />
            </Array>
          </mxGeometry>
        </mxCell>
        <mxCell id="zubh347rFZLeCGu5vtFi-1" value="&lt;div&gt;&lt;font style=&quot;font-size: 18px;&quot;&gt;UC8:&lt;/font&gt;&lt;/div&gt;&lt;font style=&quot;font-size: 18px;&quot;&gt;Selezione/Creazione mappa&lt;/font&gt;" style="ellipse;whiteSpace=wrap;html=1;" parent="1" vertex="1">
          <mxGeometry x="697" y="505" width="220" height="110" as="geometry" />
        </mxCell>
        <mxCell id="zubh347rFZLeCGu5vtFi-5" value="&lt;font style=&quot;font-size: 16px;&quot;&gt;&amp;lt;Includes&amp;gt;&lt;/font&gt;" style="edgeLabel;html=1;align=center;verticalAlign=middle;resizable=0;points=[];" parent="1" vertex="1" connectable="0">
          <mxGeometry x="549.9957142857147" y="770" as="geometry" />
        </mxCell>
        <mxCell id="zubh347rFZLeCGu5vtFi-6" value="" style="endArrow=none;html=1;rounded=0;entryX=0.5;entryY=1;entryDx=0;entryDy=0;entryPerimeter=0;exitX=1;exitY=0.5;exitDx=0;exitDy=0;" parent="1" source="zubh347rFZLeCGu5vtFi-1" target="vjVt3_Kxt8tiMpe3oFBg-24" edge="1">
          <mxGeometry width="50" height="50" relative="1" as="geometry">
            <mxPoint x="570" y="520" as="sourcePoint" />
            <mxPoint x="620" y="470" as="targetPoint" />
            <Array as="points">
              <mxPoint x="1060" y="490" />
            </Array>
          </mxGeometry>
        </mxCell>
      </root>
    </mxGraphModel>
  </diagram>
</mxfile>
